<svg width="340" height="67" viewBox="0 0 340 67" fill="none" xmlns="http://www.w3.org/2000/svg">
<path d="M76 11.27C72.9 11.27 71.35 14.26 71.35 20.24V22.61C71.35 25.45 71.76 27.68 72.58 29.3C73.4 30.9 74.61 31.7 76.21 31.7C78.41 31.7 80.43 29.56 82.27 25.28H82.81L82.6 31.97H82.27C82.15 31.75 82.04 31.6 81.94 31.52C81.84 31.42 81.69 31.37 81.49 31.37C81.31 31.37 80.59 31.53 79.33 31.85C78.07 32.15 76.79 32.3 75.49 32.3C72.23 32.3 69.7 31.42 67.9 29.66C66.12 27.9 65.23 25.26 65.23 21.74C65.23 18.2 66.16 15.47 68.02 13.55C69.9 11.63 72.42 10.67 75.58 10.67C76.8 10.67 77.99 10.83 79.15 11.15C80.33 11.45 81.02 11.6 81.22 11.6C81.42 11.6 81.57 11.56 81.67 11.48C81.77 11.38 81.88 11.22 82 11H82.33L82.57 17.51H82.03C81.13 15.49 80.2 13.95 79.24 12.89C78.3 11.81 77.22 11.27 76 11.27ZM92.9812 25.61C92.9812 27.45 93.2912 28.86 93.9112 29.84C94.5512 30.82 95.6912 31.31 97.3312 31.31C98.9712 31.31 100.231 30.8 101.111 29.78C101.991 28.76 102.431 27.21 102.431 25.13V11.57H100.481V11H104.861V11.57H103.211V24.92C103.211 27.4 102.661 29.25 101.561 30.47C100.461 31.69 98.5112 32.3 95.7112 32.3C92.9312 32.3 90.8012 31.72 89.3212 30.56C87.8612 29.4 87.1312 27.41 87.1312 24.59V11.57H85.4812V11H94.9312V11.57H92.9812V25.61ZM106.86 11H117.66V11.66H114.48V31.34H115.56C117.26 31.34 118.61 30.82 119.61 29.78C120.63 28.74 121.66 27.14 122.7 24.98H123.33L122.76 32H106.86V31.34H108.63V11.66H106.86V11ZM125.631 11H136.431V11.66H133.251V31.34H134.331C136.031 31.34 137.381 30.82 138.381 29.78C139.401 28.74 140.431 27.14 141.471 24.98H142.101L141.531 32H125.631V31.34H127.401V11.66H125.631V11ZM144.402 11H160.002L160.302 16.94H159.762C158.922 14.92 158.042 13.54 157.122 12.8C156.202 12.04 154.852 11.66 153.072 11.66H152.022V20.93H153.042C153.982 20.93 154.772 20.58 155.412 19.88C156.052 19.16 156.502 18.2 156.762 17H157.212V25.88H156.702C156.342 24.38 155.852 23.31 155.232 22.67C154.632 22.03 153.802 21.71 152.742 21.71H152.022V31.34H153.162C155.002 31.34 156.562 30.79 157.842 29.69C159.142 28.59 160.032 27.18 160.512 25.46H161.112L160.872 32H144.402V31.34H146.172V11.66H144.402V11ZM181.093 11.57V32H176.893L166.603 12.59V31.43H168.253V32H164.143V31.43H165.793V11.57H164.143V11H172.423L180.283 26.06V11.57H178.633V11H182.743V11.57H181.093ZM191.431 11H200.581V11.57H198.931V21.05L199.171 20.99L207.631 11.57H205.261V11H210.511V11.57H208.711L203.551 17.33L210.751 31.43H212.371V32H202.741V31.43H204.151L199.201 21.86L198.931 21.92V31.43H200.581V32H191.431V31.43H193.081V11.57H191.431V11ZM214.362 11H223.512V11.57H221.862V31.43H223.512V32H214.362V31.43H216.012V11.57H214.362V11ZM225.806 11H236.606V11.66H233.426V31.34H234.506C236.206 31.34 237.556 30.82 238.556 29.78C239.576 28.74 240.606 27.14 241.646 24.98H242.276L241.706 32H225.806V31.34H227.576V11.66H225.806V11ZM253.697 31.67C254.697 31.67 255.577 31.4 256.337 30.86C257.117 30.32 257.507 29.51 257.507 28.43C257.507 27.33 257.087 26.49 256.247 25.91C255.427 25.33 254.247 24.83 252.707 24.41C251.187 23.97 250.077 23.59 249.377 23.27C248.697 22.95 248.047 22.53 247.427 22.01C246.187 20.97 245.567 19.36 245.567 17.18C245.567 15.4 246.197 13.87 247.457 12.59C248.737 11.31 250.477 10.67 252.677 10.67C253.737 10.67 254.837 10.83 255.977 11.15C257.137 11.45 257.857 11.6 258.137 11.6C258.417 11.6 258.667 11.4 258.887 11H259.217L259.427 17.06H258.947C257.987 15.32 256.977 13.93 255.917 12.89C254.877 11.83 253.737 11.3 252.497 11.3C251.277 11.3 250.327 11.59 249.647 12.17C248.967 12.73 248.627 13.49 248.627 14.45C248.627 15.39 249.027 16.12 249.827 16.64C250.647 17.14 251.647 17.55 252.827 17.87C254.007 18.19 254.777 18.41 255.137 18.53C255.517 18.65 255.977 18.82 256.517 19.04C257.077 19.24 257.527 19.46 257.867 19.7C258.227 19.92 258.597 20.21 258.977 20.57C259.377 20.91 259.687 21.29 259.907 21.71C260.447 22.67 260.717 23.81 260.717 25.13C260.717 27.29 260.037 29.03 258.677 30.35C257.337 31.65 255.567 32.3 253.367 32.3C252.227 32.3 250.917 32.15 249.437 31.85C247.977 31.55 247.167 31.4 247.007 31.4C246.727 31.4 246.457 31.7 246.197 32.3H245.777L245.477 25.16H245.987C246.867 26.9 247.987 28.42 249.347 29.72C250.727 31.02 252.177 31.67 253.697 31.67ZM263.466 11H272.826V11.57H271.086V20.87H277.056V11.57H275.286V11H284.676V11.57H282.906V31.43H284.676V32H275.286V31.43H277.056V21.65H271.086V31.43H272.826V32H263.466V31.43H265.236V11.57H263.466V11ZM299.166 31.43L296.976 24.95H291.036L288.726 31.43H290.976V32H286.386V31.43H287.796L295.446 10.82H297.906L305.466 31.43H306.846V32H297.036V31.43H299.166ZM294.126 16.43L291.306 24.29H296.736L294.126 16.43ZM316.35 25.94L318.84 17.3L317.04 11.57H315.33V11H324.63V11.57H322.86L327.33 25.76L330.93 11.57H327.9V11H333.9V11.57H331.92L326.4 32.3H323.73L319.29 18.74L315.39 32.3H312.78L305.22 11.57H303.81V11H313.56V11.57H311.46L316.35 25.94Z" fill="#293646"/>
<path d="M74.305 55.15C73.545 55.16 72.885 55.04 72.325 54.79C71.765 54.54 71.23 54.165 70.72 53.665C70.67 53.625 70.625 53.575 70.585 53.515C70.555 53.455 70.54 53.385 70.54 53.305C70.54 53.185 70.585 53.075 70.675 52.975C70.775 52.875 70.885 52.825 71.005 52.825C71.125 52.825 71.235 52.875 71.335 52.975C71.725 53.395 72.165 53.715 72.655 53.935C73.155 54.155 73.69 54.265 74.26 54.265C74.74 54.265 75.165 54.19 75.535 54.04C75.915 53.89 76.215 53.675 76.435 53.395C76.655 53.115 76.765 52.79 76.765 52.42C76.765 51.96 76.64 51.59 76.39 51.31C76.14 51.02 75.81 50.785 75.4 50.605C74.99 50.415 74.535 50.245 74.035 50.095C73.625 49.975 73.235 49.84 72.865 49.69C72.495 49.53 72.165 49.34 71.875 49.12C71.585 48.89 71.36 48.61 71.2 48.28C71.04 47.95 70.96 47.55 70.96 47.08C70.96 46.55 71.1 46.08 71.38 45.67C71.66 45.26 72.055 44.94 72.565 44.71C73.085 44.47 73.685 44.35 74.365 44.35C74.955 44.35 75.52 44.45 76.06 44.65C76.61 44.85 77.045 45.145 77.365 45.535C77.515 45.695 77.59 45.84 77.59 45.97C77.59 46.07 77.54 46.17 77.44 46.27C77.34 46.37 77.23 46.42 77.11 46.42C77.01 46.42 76.925 46.385 76.855 46.315C76.685 46.105 76.47 45.92 76.21 45.76C75.95 45.59 75.66 45.46 75.34 45.37C75.03 45.28 74.705 45.235 74.365 45.235C73.895 45.235 73.47 45.31 73.09 45.46C72.72 45.6 72.425 45.805 72.205 46.075C71.995 46.345 71.89 46.67 71.89 47.05C71.89 47.47 72.01 47.815 72.25 48.085C72.49 48.355 72.805 48.58 73.195 48.76C73.585 48.93 74 49.09 74.44 49.24C74.87 49.36 75.28 49.5 75.67 49.66C76.07 49.81 76.42 50 76.72 50.23C77.03 50.46 77.27 50.75 77.44 51.1C77.62 51.45 77.71 51.89 77.71 52.42C77.71 52.93 77.565 53.39 77.275 53.8C76.985 54.21 76.585 54.535 76.075 54.775C75.575 55.015 74.985 55.14 74.305 55.15ZM90.9929 49.75C90.9929 50.54 90.8679 51.265 90.6179 51.925C90.3779 52.575 90.0329 53.145 89.5829 53.635C89.1329 54.115 88.5979 54.49 87.9779 54.76C87.3679 55.02 86.6979 55.15 85.9679 55.15C85.2379 55.15 84.5629 55.02 83.9429 54.76C83.3329 54.49 82.8029 54.115 82.3529 53.635C81.9029 53.145 81.5529 52.575 81.3029 51.925C81.0629 51.265 80.9429 50.54 80.9429 49.75C80.9429 48.96 81.0629 48.24 81.3029 47.59C81.5529 46.93 81.9029 46.36 82.3529 45.88C82.8029 45.39 83.3329 45.015 83.9429 44.755C84.5629 44.485 85.2379 44.35 85.9679 44.35C86.6979 44.35 87.3679 44.485 87.9779 44.755C88.5979 45.015 89.1329 45.39 89.5829 45.88C90.0329 46.36 90.3779 46.93 90.6179 47.59C90.8679 48.24 90.9929 48.96 90.9929 49.75ZM90.0329 49.75C90.0329 48.86 89.8579 48.08 89.5079 47.41C89.1679 46.73 88.6929 46.2 88.0829 45.82C87.4729 45.44 86.7679 45.25 85.9679 45.25C85.1779 45.25 84.4729 45.44 83.8529 45.82C83.2429 46.2 82.7629 46.73 82.4129 47.41C82.0729 48.08 81.9029 48.86 81.9029 49.75C81.9029 50.64 82.0729 51.425 82.4129 52.105C82.7629 52.775 83.2429 53.3 83.8529 53.68C84.4729 54.06 85.1779 54.25 85.9679 54.25C86.7679 54.25 87.4729 54.06 88.0829 53.68C88.6929 53.3 89.1679 52.775 89.5079 52.105C89.8579 51.425 90.0329 50.64 90.0329 49.75ZM100.722 54.115C100.842 54.115 100.947 54.16 101.037 54.25C101.127 54.33 101.172 54.43 101.172 54.55C101.172 54.68 101.127 54.79 101.037 54.88C100.947 54.96 100.842 55 100.722 55H95.3672C95.2372 55 95.1272 54.955 95.0372 54.865C94.9572 54.775 94.9172 54.67 94.9172 54.55V44.95C94.9172 44.83 94.9622 44.725 95.0522 44.635C95.1422 44.545 95.2572 44.5 95.3972 44.5C95.5172 44.5 95.6222 44.545 95.7122 44.635C95.8122 44.725 95.8622 44.83 95.8622 44.95V54.37L95.5772 54.115H100.722ZM105.646 54.535C105.636 54.665 105.581 54.775 105.481 54.865C105.391 54.955 105.286 55 105.166 55C105.026 55 104.911 54.955 104.821 54.865C104.741 54.775 104.701 54.665 104.701 54.535V44.965C104.701 44.835 104.746 44.725 104.836 44.635C104.926 44.545 105.041 44.5 105.181 44.5C105.301 44.5 105.406 44.545 105.496 44.635C105.596 44.725 105.646 44.835 105.646 44.965V54.535ZM117.916 45.28C118.036 45.36 118.106 45.465 118.126 45.595C118.146 45.715 118.116 45.835 118.036 45.955C117.966 46.045 117.876 46.095 117.766 46.105C117.656 46.115 117.551 46.095 117.451 46.045C117.071 45.795 116.661 45.6 116.221 45.46C115.791 45.32 115.326 45.25 114.826 45.25C114.216 45.25 113.646 45.36 113.116 45.58C112.596 45.79 112.141 46.1 111.751 46.51C111.361 46.91 111.056 47.385 110.836 47.935C110.626 48.485 110.521 49.09 110.521 49.75C110.521 50.43 110.631 51.05 110.851 51.61C111.071 52.16 111.376 52.635 111.766 53.035C112.166 53.435 112.626 53.74 113.146 53.95C113.666 54.16 114.226 54.265 114.826 54.265C115.316 54.265 115.776 54.195 116.206 54.055C116.646 53.915 117.056 53.725 117.436 53.485C117.536 53.425 117.641 53.405 117.751 53.425C117.871 53.435 117.966 53.49 118.036 53.59C118.126 53.7 118.156 53.82 118.126 53.95C118.106 54.07 118.041 54.165 117.931 54.235C117.681 54.395 117.386 54.545 117.046 54.685C116.706 54.825 116.346 54.935 115.966 55.015C115.586 55.105 115.206 55.15 114.826 55.15C114.106 55.15 113.431 55.02 112.801 54.76C112.171 54.5 111.611 54.135 111.121 53.665C110.631 53.185 110.246 52.615 109.966 51.955C109.696 51.295 109.561 50.56 109.561 49.75C109.561 48.97 109.696 48.255 109.966 47.605C110.236 46.945 110.611 46.375 111.091 45.895C111.571 45.415 112.131 45.04 112.771 44.77C113.411 44.5 114.096 44.365 114.826 44.365C115.396 44.365 115.946 44.445 116.476 44.605C117.006 44.765 117.486 44.99 117.916 45.28ZM122.795 54.535C122.785 54.665 122.73 54.775 122.63 54.865C122.54 54.955 122.435 55 122.315 55C122.175 55 122.06 54.955 121.97 54.865C121.89 54.775 121.85 54.665 121.85 54.535V44.965C121.85 44.835 121.895 44.725 121.985 44.635C122.075 44.545 122.19 44.5 122.33 44.5C122.45 44.5 122.555 44.545 122.645 44.635C122.745 44.725 122.795 44.835 122.795 44.965V54.535ZM130.52 55C130.38 55 130.265 54.955 130.175 54.865C130.095 54.775 130.055 54.67 130.055 54.55V44.995H130.985V54.55C130.985 54.67 130.94 54.775 130.85 54.865C130.76 54.955 130.65 55 130.52 55ZM126.95 45.355C126.83 45.355 126.725 45.315 126.635 45.235C126.545 45.155 126.5 45.05 126.5 44.92C126.5 44.8 126.545 44.7 126.635 44.62C126.725 44.54 126.83 44.5 126.95 44.5H134.09C134.21 44.5 134.315 44.54 134.405 44.62C134.495 44.7 134.54 44.805 134.54 44.935C134.54 45.065 134.495 45.17 134.405 45.25C134.315 45.32 134.21 45.355 134.09 45.355H126.95ZM147.32 49.75C147.32 50.54 147.195 51.265 146.945 51.925C146.705 52.575 146.36 53.145 145.91 53.635C145.46 54.115 144.925 54.49 144.305 54.76C143.695 55.02 143.025 55.15 142.295 55.15C141.565 55.15 140.89 55.02 140.27 54.76C139.66 54.49 139.13 54.115 138.68 53.635C138.23 53.145 137.88 52.575 137.63 51.925C137.39 51.265 137.27 50.54 137.27 49.75C137.27 48.96 137.39 48.24 137.63 47.59C137.88 46.93 138.23 46.36 138.68 45.88C139.13 45.39 139.66 45.015 140.27 44.755C140.89 44.485 141.565 44.35 142.295 44.35C143.025 44.35 143.695 44.485 144.305 44.755C144.925 45.015 145.46 45.39 145.91 45.88C146.36 46.36 146.705 46.93 146.945 47.59C147.195 48.24 147.32 48.96 147.32 49.75ZM146.36 49.75C146.36 48.86 146.185 48.08 145.835 47.41C145.495 46.73 145.02 46.2 144.41 45.82C143.8 45.44 143.095 45.25 142.295 45.25C141.505 45.25 140.8 45.44 140.18 45.82C139.57 46.2 139.09 46.73 138.74 47.41C138.4 48.08 138.23 48.86 138.23 49.75C138.23 50.64 138.4 51.425 138.74 52.105C139.09 52.775 139.57 53.3 140.18 53.68C140.8 54.06 141.505 54.25 142.295 54.25C143.095 54.25 143.8 54.06 144.41 53.68C145.02 53.3 145.495 52.775 145.835 52.105C146.185 51.425 146.36 50.64 146.36 49.75ZM151.755 55C151.605 55 151.48 54.955 151.38 54.865C151.29 54.775 151.245 54.67 151.245 54.55V44.95C151.245 44.83 151.29 44.725 151.38 44.635C151.47 44.545 151.575 44.5 151.695 44.5H155.745C156.315 44.5 156.825 44.625 157.275 44.875C157.725 45.115 158.075 45.45 158.325 45.88C158.585 46.31 158.715 46.795 158.715 47.335C158.715 47.775 158.635 48.18 158.475 48.55C158.315 48.92 158.09 49.235 157.8 49.495C157.51 49.745 157.185 49.93 156.825 50.05L156.3 49.885C156.67 49.915 157.015 50.035 157.335 50.245C157.655 50.445 157.91 50.725 158.1 51.085C158.3 51.435 158.405 51.86 158.415 52.36C158.425 52.79 158.445 53.125 158.475 53.365C158.515 53.605 158.57 53.785 158.64 53.905C158.71 54.025 158.8 54.12 158.91 54.19C159.01 54.25 159.075 54.335 159.105 54.445C159.145 54.555 159.135 54.66 159.075 54.76C159.035 54.84 158.975 54.9 158.895 54.94C158.825 54.97 158.75 54.985 158.67 54.985C158.59 54.985 158.51 54.965 158.43 54.925C158.29 54.845 158.145 54.72 157.995 54.55C157.855 54.38 157.735 54.13 157.635 53.8C157.545 53.47 157.5 53.01 157.5 52.42C157.5 52.03 157.435 51.71 157.305 51.46C157.185 51.21 157.025 51.02 156.825 50.89C156.635 50.75 156.42 50.655 156.18 50.605C155.95 50.545 155.73 50.515 155.52 50.515H152.025L152.19 50.305V54.55C152.19 54.67 152.15 54.775 152.07 54.865C151.99 54.955 151.885 55 151.755 55ZM152.025 49.69H155.79C156.13 49.66 156.45 49.55 156.75 49.36C157.05 49.16 157.29 48.89 157.47 48.55C157.66 48.21 157.755 47.815 157.755 47.365C157.755 46.795 157.56 46.325 157.17 45.955C156.79 45.575 156.29 45.385 155.67 45.385H152.085L152.19 45.175V49.9L152.025 49.69ZM165.988 55.15C165.228 55.16 164.568 55.04 164.008 54.79C163.448 54.54 162.913 54.165 162.403 53.665C162.353 53.625 162.308 53.575 162.268 53.515C162.238 53.455 162.223 53.385 162.223 53.305C162.223 53.185 162.268 53.075 162.358 52.975C162.458 52.875 162.568 52.825 162.688 52.825C162.808 52.825 162.918 52.875 163.018 52.975C163.408 53.395 163.848 53.715 164.338 53.935C164.838 54.155 165.373 54.265 165.943 54.265C166.423 54.265 166.848 54.19 167.218 54.04C167.598 53.89 167.898 53.675 168.118 53.395C168.338 53.115 168.448 52.79 168.448 52.42C168.448 51.96 168.323 51.59 168.073 51.31C167.823 51.02 167.493 50.785 167.083 50.605C166.673 50.415 166.218 50.245 165.718 50.095C165.308 49.975 164.918 49.84 164.548 49.69C164.178 49.53 163.848 49.34 163.558 49.12C163.268 48.89 163.043 48.61 162.883 48.28C162.723 47.95 162.643 47.55 162.643 47.08C162.643 46.55 162.783 46.08 163.063 45.67C163.343 45.26 163.738 44.94 164.248 44.71C164.768 44.47 165.368 44.35 166.048 44.35C166.638 44.35 167.203 44.45 167.743 44.65C168.293 44.85 168.728 45.145 169.048 45.535C169.198 45.695 169.273 45.84 169.273 45.97C169.273 46.07 169.223 46.17 169.123 46.27C169.023 46.37 168.913 46.42 168.793 46.42C168.693 46.42 168.608 46.385 168.538 46.315C168.368 46.105 168.153 45.92 167.893 45.76C167.633 45.59 167.343 45.46 167.023 45.37C166.713 45.28 166.388 45.235 166.048 45.235C165.578 45.235 165.153 45.31 164.773 45.46C164.403 45.6 164.108 45.805 163.888 46.075C163.678 46.345 163.573 46.67 163.573 47.05C163.573 47.47 163.693 47.815 163.933 48.085C164.173 48.355 164.488 48.58 164.878 48.76C165.268 48.93 165.683 49.09 166.123 49.24C166.553 49.36 166.963 49.5 167.353 49.66C167.753 49.81 168.103 50 168.403 50.23C168.713 50.46 168.953 50.75 169.123 51.1C169.303 51.45 169.393 51.89 169.393 52.42C169.393 52.93 169.248 53.39 168.958 53.8C168.668 54.21 168.268 54.535 167.758 54.775C167.258 55.015 166.668 55.14 165.988 55.15ZM181.888 55.15C181.178 55.15 180.548 54.985 179.998 54.655C179.448 54.325 179.018 53.9 178.708 53.38C178.408 52.86 178.258 52.31 178.258 51.73C178.258 51.29 178.343 50.865 178.513 50.455C178.693 50.045 178.958 49.68 179.308 49.36C179.668 49.03 180.123 48.77 180.673 48.58L181.318 49.225C180.538 49.405 179.988 49.715 179.668 50.155C179.348 50.595 179.188 51.08 179.188 51.61C179.188 52.06 179.293 52.49 179.503 52.9C179.713 53.3 180.028 53.63 180.448 53.89C180.868 54.15 181.383 54.28 181.993 54.28C182.643 54.28 183.198 54.175 183.658 53.965C184.128 53.745 184.523 53.46 184.843 53.11C185.163 52.75 185.418 52.35 185.608 51.91C185.798 51.46 185.938 51.005 186.028 50.545C186.048 50.445 186.088 50.37 186.148 50.32C186.218 50.26 186.313 50.23 186.433 50.23C186.573 50.23 186.683 50.28 186.763 50.38C186.843 50.48 186.873 50.605 186.853 50.755C186.763 51.295 186.598 51.825 186.358 52.345C186.118 52.865 185.793 53.34 185.383 53.77C184.973 54.19 184.478 54.525 183.898 54.775C183.318 55.025 182.648 55.15 181.888 55.15ZM187.213 54.955C187.163 54.955 187.113 54.95 187.063 54.94C187.023 54.92 186.983 54.9 186.943 54.88C186.333 54.4 185.743 53.94 185.173 53.5C184.613 53.05 184.053 52.565 183.493 52.045C182.943 51.525 182.363 50.925 181.753 50.245C181.403 49.845 181.088 49.455 180.808 49.075C180.528 48.685 180.303 48.305 180.133 47.935C179.963 47.555 179.878 47.18 179.878 46.81C179.878 46.35 179.993 45.935 180.223 45.565C180.453 45.185 180.778 44.89 181.198 44.68C181.618 44.46 182.118 44.35 182.698 44.35C183.418 44.35 184.013 44.485 184.483 44.755C184.953 45.025 185.283 45.345 185.473 45.715C185.483 45.725 185.498 45.76 185.518 45.82C185.538 45.87 185.548 45.93 185.548 46C185.548 46.09 185.508 46.175 185.428 46.255C185.358 46.335 185.258 46.375 185.128 46.375C185.048 46.375 184.978 46.36 184.918 46.33C184.868 46.3 184.828 46.26 184.798 46.21C184.598 45.91 184.333 45.665 184.003 45.475C183.683 45.275 183.248 45.175 182.698 45.175C182.088 45.175 181.623 45.33 181.303 45.64C180.983 45.94 180.823 46.33 180.823 46.81C180.823 47.12 180.908 47.45 181.078 47.8C181.248 48.14 181.463 48.485 181.723 48.835C181.993 49.185 182.273 49.525 182.563 49.855C182.963 50.305 183.383 50.745 183.823 51.175C184.273 51.595 184.713 51.99 185.143 52.36C185.583 52.73 185.998 53.065 186.388 53.365C186.778 53.665 187.123 53.93 187.423 54.16C187.493 54.21 187.543 54.265 187.573 54.325C187.603 54.385 187.618 54.455 187.618 54.535C187.618 54.615 187.583 54.705 187.513 54.805C187.443 54.905 187.343 54.955 187.213 54.955ZM197.55 44.5H203.055C203.175 44.5 203.28 44.545 203.37 44.635C203.46 44.715 203.505 44.82 203.505 44.95C203.505 45.08 203.46 45.185 203.37 45.265C203.28 45.345 203.175 45.385 203.055 45.385H197.895L198.045 45.13V49.345L197.88 49.15H202.38C202.5 49.15 202.605 49.195 202.695 49.285C202.785 49.375 202.83 49.48 202.83 49.6C202.83 49.73 202.785 49.835 202.695 49.915C202.605 49.995 202.5 50.035 202.38 50.035H197.91L198.045 49.885V54.205L197.97 54.115H203.055C203.175 54.115 203.28 54.16 203.37 54.25C203.46 54.34 203.505 54.445 203.505 54.565C203.505 54.695 203.46 54.8 203.37 54.88C203.28 54.96 203.175 55 203.055 55H197.55C197.43 55 197.325 54.955 197.235 54.865C197.145 54.775 197.1 54.67 197.1 54.55V44.95C197.1 44.83 197.145 44.725 197.235 44.635C197.325 44.545 197.43 44.5 197.55 44.5ZM210.32 55.15C209.56 55.16 208.9 55.04 208.34 54.79C207.78 54.54 207.245 54.165 206.735 53.665C206.685 53.625 206.64 53.575 206.6 53.515C206.57 53.455 206.555 53.385 206.555 53.305C206.555 53.185 206.6 53.075 206.69 52.975C206.79 52.875 206.9 52.825 207.02 52.825C207.14 52.825 207.25 52.875 207.35 52.975C207.74 53.395 208.18 53.715 208.67 53.935C209.17 54.155 209.705 54.265 210.275 54.265C210.755 54.265 211.18 54.19 211.55 54.04C211.93 53.89 212.23 53.675 212.45 53.395C212.67 53.115 212.78 52.79 212.78 52.42C212.78 51.96 212.655 51.59 212.405 51.31C212.155 51.02 211.825 50.785 211.415 50.605C211.005 50.415 210.55 50.245 210.05 50.095C209.64 49.975 209.25 49.84 208.88 49.69C208.51 49.53 208.18 49.34 207.89 49.12C207.6 48.89 207.375 48.61 207.215 48.28C207.055 47.95 206.975 47.55 206.975 47.08C206.975 46.55 207.115 46.08 207.395 45.67C207.675 45.26 208.07 44.94 208.58 44.71C209.1 44.47 209.7 44.35 210.38 44.35C210.97 44.35 211.535 44.45 212.075 44.65C212.625 44.85 213.06 45.145 213.38 45.535C213.53 45.695 213.605 45.84 213.605 45.97C213.605 46.07 213.555 46.17 213.455 46.27C213.355 46.37 213.245 46.42 213.125 46.42C213.025 46.42 212.94 46.385 212.87 46.315C212.7 46.105 212.485 45.92 212.225 45.76C211.965 45.59 211.675 45.46 211.355 45.37C211.045 45.28 210.72 45.235 210.38 45.235C209.91 45.235 209.485 45.31 209.105 45.46C208.735 45.6 208.44 45.805 208.22 46.075C208.01 46.345 207.905 46.67 207.905 47.05C207.905 47.47 208.025 47.815 208.265 48.085C208.505 48.355 208.82 48.58 209.21 48.76C209.6 48.93 210.015 49.09 210.455 49.24C210.885 49.36 211.295 49.5 211.685 49.66C212.085 49.81 212.435 50 212.735 50.23C213.045 50.46 213.285 50.75 213.455 51.1C213.635 51.45 213.725 51.89 213.725 52.42C213.725 52.93 213.58 53.39 213.29 53.8C213 54.21 212.6 54.535 212.09 54.775C211.59 55.015 211 55.14 210.32 55.15ZM220.768 55C220.628 55 220.513 54.955 220.423 54.865C220.343 54.775 220.303 54.67 220.303 54.55V44.995H221.233V54.55C221.233 54.67 221.188 54.775 221.098 54.865C221.008 54.955 220.898 55 220.768 55ZM217.198 45.355C217.078 45.355 216.973 45.315 216.883 45.235C216.793 45.155 216.748 45.05 216.748 44.92C216.748 44.8 216.793 44.7 216.883 44.62C216.973 44.54 217.078 44.5 217.198 44.5H224.338C224.458 44.5 224.563 44.54 224.653 44.62C224.743 44.7 224.788 44.805 224.788 44.935C224.788 45.065 224.743 45.17 224.653 45.25C224.563 45.32 224.458 45.355 224.338 45.355H217.198ZM231.264 45.655L227.619 54.715C227.579 54.815 227.524 54.89 227.454 54.94C227.384 54.99 227.304 55.015 227.214 55.015C227.074 55.015 226.969 54.98 226.899 54.91C226.829 54.83 226.789 54.735 226.779 54.625C226.769 54.575 226.774 54.515 226.794 54.445L230.754 44.755C230.804 44.645 230.864 44.57 230.934 44.53C231.014 44.48 231.104 44.455 231.204 44.455C231.304 44.455 231.389 44.485 231.459 44.545C231.539 44.595 231.599 44.665 231.639 44.755L235.584 54.4C235.604 54.46 235.614 54.52 235.614 54.58C235.614 54.72 235.569 54.83 235.479 54.91C235.389 54.98 235.284 55.015 235.164 55.015C235.064 55.015 234.974 54.99 234.894 54.94C234.824 54.88 234.769 54.805 234.729 54.715L230.994 45.595L231.264 45.655ZM228.489 51.97L228.864 51.085H233.514L233.694 51.97H228.489ZM241.639 55C241.499 55 241.384 54.955 241.294 54.865C241.214 54.775 241.174 54.67 241.174 54.55V44.995H242.104V54.55C242.104 54.67 242.059 54.775 241.969 54.865C241.879 54.955 241.769 55 241.639 55ZM238.069 45.355C237.949 45.355 237.844 45.315 237.754 45.235C237.664 45.155 237.619 45.05 237.619 44.92C237.619 44.8 237.664 44.7 237.754 44.62C237.844 44.54 237.949 44.5 238.069 44.5H245.209C245.329 44.5 245.434 44.54 245.524 44.62C245.614 44.7 245.659 44.805 245.659 44.935C245.659 45.065 245.614 45.17 245.524 45.25C245.434 45.32 245.329 45.355 245.209 45.355H238.069ZM249.822 44.5H255.327C255.447 44.5 255.552 44.545 255.642 44.635C255.732 44.715 255.777 44.82 255.777 44.95C255.777 45.08 255.732 45.185 255.642 45.265C255.552 45.345 255.447 45.385 255.327 45.385H250.167L250.317 45.13V49.345L250.152 49.15H254.652C254.772 49.15 254.877 49.195 254.967 49.285C255.057 49.375 255.102 49.48 255.102 49.6C255.102 49.73 255.057 49.835 254.967 49.915C254.877 49.995 254.772 50.035 254.652 50.035H250.182L250.317 49.885V54.205L250.242 54.115H255.327C255.447 54.115 255.552 54.16 255.642 54.25C255.732 54.34 255.777 54.445 255.777 54.565C255.777 54.695 255.732 54.8 255.642 54.88C255.552 54.96 255.447 55 255.327 55H249.822C249.702 55 249.597 54.955 249.507 54.865C249.417 54.775 249.372 54.67 249.372 54.55V44.95C249.372 44.83 249.417 44.725 249.507 44.635C249.597 44.545 249.702 44.5 249.822 44.5ZM269.108 45.655L265.463 54.715C265.423 54.815 265.368 54.89 265.298 54.94C265.228 54.99 265.148 55.015 265.058 55.015C264.918 55.015 264.813 54.98 264.743 54.91C264.673 54.83 264.633 54.735 264.623 54.625C264.613 54.575 264.618 54.515 264.638 54.445L268.598 44.755C268.648 44.645 268.708 44.57 268.778 44.53C268.858 44.48 268.948 44.455 269.048 44.455C269.148 44.455 269.233 44.485 269.303 44.545C269.383 44.595 269.443 44.665 269.483 44.755L273.428 54.4C273.448 54.46 273.458 54.52 273.458 54.58C273.458 54.72 273.413 54.83 273.323 54.91C273.233 54.98 273.128 55.015 273.008 55.015C272.908 55.015 272.818 54.99 272.738 54.94C272.668 54.88 272.613 54.805 272.573 54.715L268.838 45.595L269.108 45.655ZM266.333 51.97L266.708 51.085H271.358L271.538 51.97H266.333ZM281.747 55.15C280.977 55.15 280.262 55.015 279.602 54.745C278.942 54.475 278.367 54.1 277.877 53.62C277.397 53.13 277.022 52.555 276.752 51.895C276.482 51.235 276.347 50.52 276.347 49.75C276.347 48.98 276.482 48.265 276.752 47.605C277.022 46.945 277.397 46.375 277.877 45.895C278.367 45.405 278.942 45.025 279.602 44.755C280.262 44.485 280.977 44.35 281.747 44.35C282.277 44.35 282.787 44.415 283.277 44.545C283.777 44.665 284.222 44.85 284.612 45.1C284.682 45.15 284.732 45.21 284.762 45.28C284.802 45.34 284.822 45.405 284.822 45.475C284.822 45.615 284.777 45.73 284.687 45.82C284.597 45.9 284.502 45.94 284.402 45.94C284.352 45.94 284.302 45.935 284.252 45.925C284.212 45.905 284.172 45.885 284.132 45.865C283.792 45.675 283.422 45.525 283.022 45.415C282.622 45.305 282.197 45.25 281.747 45.25C280.887 45.25 280.122 45.445 279.452 45.835C278.782 46.225 278.257 46.76 277.877 47.44C277.497 48.12 277.307 48.89 277.307 49.75C277.307 50.61 277.497 51.38 277.877 52.06C278.257 52.74 278.782 53.275 279.452 53.665C280.122 54.055 280.887 54.25 281.747 54.25C282.197 54.25 282.647 54.185 283.097 54.055C283.557 53.925 283.952 53.75 284.282 53.53L284.207 53.845V50.395L284.432 50.605H281.837C281.707 50.605 281.597 50.56 281.507 50.47C281.417 50.38 281.372 50.275 281.372 50.155C281.372 50.015 281.417 49.905 281.507 49.825C281.597 49.745 281.707 49.705 281.837 49.705H284.702C284.832 49.705 284.937 49.75 285.017 49.84C285.107 49.92 285.152 50.025 285.152 50.155V53.77C285.152 53.85 285.132 53.925 285.092 53.995C285.052 54.065 284.997 54.125 284.927 54.175C284.487 54.475 283.992 54.715 283.442 54.895C282.902 55.065 282.337 55.15 281.747 55.15ZM289.717 44.5H295.222C295.342 44.5 295.447 44.545 295.537 44.635C295.627 44.715 295.672 44.82 295.672 44.95C295.672 45.08 295.627 45.185 295.537 45.265C295.447 45.345 295.342 45.385 295.222 45.385H290.062L290.212 45.13V49.345L290.047 49.15H294.547C294.667 49.15 294.772 49.195 294.862 49.285C294.952 49.375 294.997 49.48 294.997 49.6C294.997 49.73 294.952 49.835 294.862 49.915C294.772 49.995 294.667 50.035 294.547 50.035H290.077L290.212 49.885V54.205L290.137 54.115H295.222C295.342 54.115 295.447 54.16 295.537 54.25C295.627 54.34 295.672 54.445 295.672 54.565C295.672 54.695 295.627 54.8 295.537 54.88C295.447 54.96 295.342 55 295.222 55H289.717C289.597 55 289.492 54.955 289.402 54.865C289.312 54.775 289.267 54.67 289.267 54.55V44.95C289.267 44.83 289.312 44.725 289.402 44.635C289.492 44.545 289.597 44.5 289.717 44.5ZM307.272 44.5C307.402 44.5 307.502 44.54 307.572 44.62C307.652 44.7 307.692 44.8 307.692 44.92V54.52C307.692 54.67 307.642 54.79 307.542 54.88C307.452 54.96 307.347 55 307.227 55C307.167 55 307.102 54.99 307.032 54.97C306.962 54.94 306.907 54.9 306.867 54.85L300.177 45.835L300.432 45.7V54.595C300.432 54.705 300.392 54.8 300.312 54.88C300.232 54.96 300.132 55 300.012 55C299.882 55 299.777 54.96 299.697 54.88C299.627 54.8 299.592 54.705 299.592 54.595V44.95C299.592 44.8 299.637 44.69 299.727 44.62C299.817 44.54 299.917 44.5 300.027 44.5C300.087 44.5 300.152 44.515 300.222 44.545C300.292 44.565 300.347 44.605 300.387 44.665L307.002 53.575L306.852 53.845V44.92C306.852 44.8 306.892 44.7 306.972 44.62C307.062 44.54 307.162 44.5 307.272 44.5ZM315.425 55C315.285 55 315.17 54.955 315.08 54.865C315 54.775 314.96 54.67 314.96 54.55V44.995H315.89V54.55C315.89 54.67 315.845 54.775 315.755 54.865C315.665 54.955 315.555 55 315.425 55ZM311.855 45.355C311.735 45.355 311.63 45.315 311.54 45.235C311.45 45.155 311.405 45.05 311.405 44.92C311.405 44.8 311.45 44.7 311.54 44.62C311.63 44.54 311.735 44.5 311.855 44.5H318.995C319.115 44.5 319.22 44.54 319.31 44.62C319.4 44.7 319.445 44.805 319.445 44.935C319.445 45.065 319.4 45.17 319.31 45.25C319.22 45.32 319.115 45.355 318.995 45.355H311.855ZM326.053 55.15C325.293 55.16 324.633 55.04 324.073 54.79C323.513 54.54 322.978 54.165 322.468 53.665C322.418 53.625 322.373 53.575 322.333 53.515C322.303 53.455 322.288 53.385 322.288 53.305C322.288 53.185 322.333 53.075 322.423 52.975C322.523 52.875 322.633 52.825 322.753 52.825C322.873 52.825 322.983 52.875 323.083 52.975C323.473 53.395 323.913 53.715 324.403 53.935C324.903 54.155 325.438 54.265 326.008 54.265C326.488 54.265 326.913 54.19 327.283 54.04C327.663 53.89 327.963 53.675 328.183 53.395C328.403 53.115 328.513 52.79 328.513 52.42C328.513 51.96 328.388 51.59 328.138 51.31C327.888 51.02 327.558 50.785 327.148 50.605C326.738 50.415 326.283 50.245 325.783 50.095C325.373 49.975 324.983 49.84 324.613 49.69C324.243 49.53 323.913 49.34 323.623 49.12C323.333 48.89 323.108 48.61 322.948 48.28C322.788 47.95 322.708 47.55 322.708 47.08C322.708 46.55 322.848 46.08 323.128 45.67C323.408 45.26 323.803 44.94 324.313 44.71C324.833 44.47 325.433 44.35 326.113 44.35C326.703 44.35 327.268 44.45 327.808 44.65C328.358 44.85 328.793 45.145 329.113 45.535C329.263 45.695 329.338 45.84 329.338 45.97C329.338 46.07 329.288 46.17 329.188 46.27C329.088 46.37 328.978 46.42 328.858 46.42C328.758 46.42 328.673 46.385 328.603 46.315C328.433 46.105 328.218 45.92 327.958 45.76C327.698 45.59 327.408 45.46 327.088 45.37C326.778 45.28 326.453 45.235 326.113 45.235C325.643 45.235 325.218 45.31 324.838 45.46C324.468 45.6 324.173 45.805 323.953 46.075C323.743 46.345 323.638 46.67 323.638 47.05C323.638 47.47 323.758 47.815 323.998 48.085C324.238 48.355 324.553 48.58 324.943 48.76C325.333 48.93 325.748 49.09 326.188 49.24C326.618 49.36 327.028 49.5 327.418 49.66C327.818 49.81 328.168 50 328.468 50.23C328.778 50.46 329.018 50.75 329.188 51.1C329.368 51.45 329.458 51.89 329.458 52.42C329.458 52.93 329.313 53.39 329.023 53.8C328.733 54.21 328.333 54.535 327.823 54.775C327.323 55.015 326.733 55.14 326.053 55.15Z" fill="#293646"/>
<g filter="url(#filter0_d_2_110)">
<path d="M55 4H5L55 54V4Z" fill="url(#paint0_linear_2_110)"/>
</g>
<g filter="url(#filter1_d_2_110)">
<path d="M4 55L54 55L4 5L4 55Z" fill="url(#paint1_linear_2_110)"/>
</g>
<rect x="4" y="62" width="60" height="5" fill="#293646"/>
<rect x="71" y="62" width="60" height="5" fill="#293646"/>
<rect x="138" y="62" width="60" height="5" fill="#293646"/>
<rect x="272" y="62" width="60" height="5" fill="#293646"/>
<rect x="205" y="62" width="60" height="5" fill="#293646"/>
<defs>
<filter id="filter0_d_2_110" x="1" y="4" width="58" height="58" filterUnits="userSpaceOnUse" color-interpolation-filters="sRGB">
<feFlood flood-opacity="0" result="BackgroundImageFix"/>
<feColorMatrix in="SourceAlpha" type="matrix" values="0 0 0 0 0 0 0 0 0 0 0 0 0 0 0 0 0 0 127 0" result="hardAlpha"/>
<feOffset dy="4"/>
<feGaussianBlur stdDeviation="2"/>
<feComposite in2="hardAlpha" operator="out"/>
<feColorMatrix type="matrix" values="0 0 0 0 0 0 0 0 0 0 0 0 0 0 0 0 0 0 0.25 0"/>
<feBlend mode="normal" in2="BackgroundImageFix" result="effect1_dropShadow_2_110"/>
<feBlend mode="normal" in="SourceGraphic" in2="effect1_dropShadow_2_110" result="shape"/>
</filter>
<filter id="filter1_d_2_110" x="0" y="5" width="58" height="58" filterUnits="userSpaceOnUse" color-interpolation-filters="sRGB">
<feFlood flood-opacity="0" result="BackgroundImageFix"/>
<feColorMatrix in="SourceAlpha" type="matrix" values="0 0 0 0 0 0 0 0 0 0 0 0 0 0 0 0 0 0 127 0" result="hardAlpha"/>
<feOffset dy="4"/>
<feGaussianBlur stdDeviation="2"/>
<feComposite in2="hardAlpha" operator="out"/>
<feColorMatrix type="matrix" values="0 0 0 0 0 0 0 0 0 0 0 0 0 0 0 0 0 0 0.25 0"/>
<feBlend mode="normal" in2="BackgroundImageFix" result="effect1_dropShadow_2_110"/>
<feBlend mode="normal" in="SourceGraphic" in2="effect1_dropShadow_2_110" result="shape"/>
</filter>
<linearGradient id="paint0_linear_2_110" x1="55" y1="4" x2="5.00001" y2="54" gradientUnits="userSpaceOnUse">
<stop stop-color="#E71015"/>
<stop offset="1" stop-color="#391313"/>
</linearGradient>
<linearGradient id="paint1_linear_2_110" x1="4" y1="55" x2="54" y2="5" gradientUnits="userSpaceOnUse">
<stop stop-color="#FFCC00"/>
<stop offset="1" stop-color="#FF5C00"/>
</linearGradient>
</defs>
</svg>
